<?xml version="1.0" encoding="UTF-8" standalone="no"?>
<svg width="564px" height="61px" viewBox="0 0 564 61" version="1.1" xmlns="http://www.w3.org/2000/svg" xmlns:xlink="http://www.w3.org/1999/xlink" xmlns:sketch="http://www.bohemiancoding.com/sketch/ns">
    <!-- Generator: Sketch 3.0 (7574) - http://www.bohemiancoding.com/sketch -->
    <title>ITMO</title>
    <description>Created with Sketch.</description>
    <defs></defs>
    <g id="Page-1" stroke="none" stroke-width="1" fill="none" fill-rule="evenodd" sketch:type="MSPage">
        <g id="ITMO" sketch:type="MSArtboardGroup">
            <path d="M19.373,37.305 C19.373,39.113 17.908,40.578 16.1,40.578 C14.292,40.578 12.828,39.113 12.828,37.305 C12.828,35.497 14.292,34.032 16.1,34.032 C17.908,34.032 19.373,35.497 19.373,37.305" id="Fill-1" fill="#24478C" sketch:type="MSShapeGroup"></path>
            <path d="M35.098,16.171 C35.098,18.882 32.899,21.08 30.189,21.08 C27.478,21.08 25.28,18.882 25.28,16.171 C25.28,13.46 27.478,11.262 30.189,11.262 C32.899,11.262 35.098,13.46 35.098,16.171" id="Fill-2" fill="#24478C" sketch:type="MSShapeGroup"></path>
            <path d="M49.187,23.216 C49.187,25.927 46.989,28.125 44.278,28.125 C41.567,28.125 39.369,25.927 39.369,23.216 C39.369,20.505 41.567,18.307 44.278,18.307 C46.989,18.307 49.187,20.505 49.187,23.216" id="Fill-3" fill="#24478C" sketch:type="MSShapeGroup"></path>
            <path d="M63.276,30.26 C63.276,32.972 61.078,35.169 58.367,35.169 C55.656,35.169 53.458,32.972 53.458,30.26 C53.458,27.549 55.656,25.352 58.367,25.352 C61.078,25.352 63.276,27.549 63.276,30.26" id="Fill-4" fill="#24478C" sketch:type="MSShapeGroup"></path>
            <path d="M49.187,37.305 C49.187,40.016 46.989,42.214 44.278,42.214 C41.567,42.214 39.369,40.016 39.369,37.305 C39.369,34.594 41.567,32.396 44.278,32.396 C46.989,32.396 49.187,34.594 49.187,37.305" id="Fill-5" fill="#24478C" sketch:type="MSShapeGroup"></path>
            <path d="M77.364,37.305 C77.364,40.016 75.166,42.214 72.454,42.214 C69.744,42.214 67.546,40.016 67.546,37.305 C67.546,34.594 69.744,32.396 72.454,32.396 C75.166,32.396 77.364,34.594 77.364,37.305" id="Fill-6" fill="#24478C" sketch:type="MSShapeGroup"></path>
            <path d="M75.728,51.394 C75.728,53.201 74.263,54.666 72.455,54.666 C70.648,54.666 69.182,53.201 69.182,51.394 C69.182,49.586 70.648,48.121 72.455,48.121 C74.263,48.121 75.728,49.586 75.728,51.394" id="Fill-7" fill="#24478C" sketch:type="MSShapeGroup"></path>
            <path d="M89.818,44.349 C89.818,46.157 88.353,47.622 86.545,47.622 C84.738,47.622 83.272,46.157 83.272,44.349 C83.272,42.542 84.738,41.077 86.545,41.077 C88.353,41.077 89.818,42.542 89.818,44.349" id="Fill-8" fill="#24478C" sketch:type="MSShapeGroup"></path>
            <path d="M91.454,30.26 C91.454,32.971 89.255,35.169 86.545,35.169 C83.835,35.169 81.636,32.971 81.636,30.26 C81.636,27.55 83.835,25.352 86.545,25.352 C89.255,25.352 91.454,27.55 91.454,30.26" id="Fill-9" fill="#24478C" sketch:type="MSShapeGroup"></path>
            <path d="M77.364,23.216 C77.364,25.927 75.166,28.125 72.455,28.125 C69.744,28.125 67.546,25.927 67.546,23.216 C67.546,20.505 69.744,18.307 72.455,18.307 C75.166,18.307 77.364,20.505 77.364,23.216" id="Fill-10" fill="#24478C" sketch:type="MSShapeGroup"></path>
            <path d="M61.64,44.349 C61.64,46.157 60.174,47.622 58.367,47.622 C56.56,47.622 55.094,46.157 55.094,44.349 C55.094,42.542 56.56,41.077 58.367,41.077 C60.174,41.077 61.64,42.542 61.64,44.349" id="Fill-11" fill="#24478C" sketch:type="MSShapeGroup"></path>
            <path d="M91.454,16.171 C91.454,18.882 89.256,21.08 86.545,21.08 C83.835,21.08 81.636,18.882 81.636,16.171 C81.636,13.46 83.835,11.263 86.545,11.263 C89.256,11.263 91.454,13.46 91.454,16.171" id="Fill-12" fill="#24478C" sketch:type="MSShapeGroup"></path>
            <path d="M103.907,9.127 C103.907,10.934 102.441,12.4 100.634,12.4 C98.826,12.4 97.361,10.934 97.361,9.127 C97.361,7.32 98.826,5.854 100.634,5.854 C102.441,5.854 103.907,7.32 103.907,9.127" id="Fill-13" fill="#24478C" sketch:type="MSShapeGroup"></path>
            <path d="M103.907,37.305 C103.907,39.113 102.441,40.577 100.634,40.577 C98.826,40.577 97.361,39.113 97.361,37.305 C97.361,35.497 98.826,34.032 100.634,34.032 C102.441,34.032 103.907,35.497 103.907,37.305" id="Fill-14" fill="#24478C" sketch:type="MSShapeGroup"></path>
            <path d="M61.64,16.172 C61.64,17.979 60.174,19.444 58.367,19.444 C56.56,19.444 55.094,17.979 55.094,16.172 C55.094,14.364 56.56,12.899 58.367,12.899 C60.174,12.899 61.64,14.364 61.64,16.172" id="Fill-15" fill="#24478C" sketch:type="MSShapeGroup"></path>
            <path d="M47.551,51.394 C47.551,53.201 46.086,54.666 44.278,54.666 C42.471,54.666 41.005,53.201 41.005,51.394 C41.005,49.586 42.471,48.121 44.278,48.121 C46.086,48.121 47.551,49.586 47.551,51.394" id="Fill-16" fill="#24478C" sketch:type="MSShapeGroup"></path>
            <path d="M35.098,30.26 C35.098,32.971 32.9,35.169 30.189,35.169 C27.478,35.169 25.28,32.971 25.28,30.26 C25.28,27.549 27.478,25.352 30.189,25.352 C32.9,25.352 35.098,27.549 35.098,30.26" id="Fill-17" fill="#24478C" sketch:type="MSShapeGroup"></path>
            <path d="M21.009,23.216 C21.009,25.927 18.811,28.125 16.1,28.125 C13.389,28.125 11.191,25.927 11.191,23.216 C11.191,20.505 13.389,18.307 16.1,18.307 C18.811,18.307 21.009,20.505 21.009,23.216" id="Fill-18" fill="#D71F43" sketch:type="MSShapeGroup"></path>
            <path d="M3.924,44.349 C3.924,45.406 3.067,46.262 2.011,46.262 C0.955,46.262 0.098,45.406 0.098,44.349 C0.098,43.293 0.955,42.436 2.011,42.436 C3.067,42.436 3.924,43.293 3.924,44.349" id="Fill-19" fill="#24478C" sketch:type="MSShapeGroup"></path>
            <path d="M3.924,30.26 C3.924,31.317 3.067,32.174 2.011,32.174 C0.955,32.174 0.098,31.317 0.098,30.26 C0.098,29.204 0.955,28.347 2.011,28.347 C3.067,28.347 3.924,29.204 3.924,30.26" id="Fill-20" fill="#24478C" sketch:type="MSShapeGroup"></path>
            <path d="M32.102,44.25 C32.102,45.307 31.245,46.163 30.189,46.163 C29.133,46.163 28.276,45.307 28.276,44.25 C28.276,43.194 29.133,42.337 30.189,42.337 C31.245,42.337 32.102,43.194 32.102,44.25" id="Fill-21" fill="#24478C" sketch:type="MSShapeGroup"></path>
            <path d="M32.102,2.082 C32.102,3.139 31.246,3.995 30.189,3.995 C29.132,3.995 28.276,3.139 28.276,2.082 C28.276,1.026 29.132,0.169 30.189,0.169 C31.246,0.169 32.102,1.026 32.102,2.082" id="Fill-22" fill="#24478C" sketch:type="MSShapeGroup"></path>
            <path d="M60.181,58.438 C60.181,59.495 59.324,60.351 58.268,60.351 C57.21,60.351 56.354,59.495 56.354,58.438 C56.354,57.382 57.21,56.525 58.268,56.525 C59.324,56.525 60.181,57.382 60.181,58.438" id="Fill-23" fill="#24478C" sketch:type="MSShapeGroup"></path>
            <path d="M18.014,9.127 C18.014,10.183 17.157,11.04 16.1,11.04 C15.043,11.04 14.187,10.183 14.187,9.127 C14.187,8.07 15.043,7.214 16.1,7.214 C17.157,7.214 18.014,8.07 18.014,9.127" id="Fill-24" fill="#24478C" sketch:type="MSShapeGroup"></path>
            <path d="M46.191,9.127 C46.191,10.183 45.334,11.04 44.278,11.04 C43.221,11.04 42.365,10.183 42.365,9.127 C42.365,8.07 43.221,7.214 44.278,7.214 C45.334,7.214 46.191,8.07 46.191,9.127" id="Fill-25" fill="#24478C" sketch:type="MSShapeGroup"></path>
            <path d="M60.181,58.438 C60.181,59.495 59.324,60.351 58.268,60.351 C57.21,60.351 56.354,59.495 56.354,58.438 C56.354,57.382 57.21,56.525 58.268,56.525 C59.324,56.525 60.181,57.382 60.181,58.438" id="Fill-26" fill="#24478C" sketch:type="MSShapeGroup"></path>
            <path d="M130.725,23.216 C130.725,24.272 129.869,25.129 128.813,25.129 C127.756,25.129 126.898,24.272 126.898,23.216 C126.898,22.159 127.756,21.303 128.813,21.303 C129.869,21.303 130.725,22.159 130.725,23.216" id="Fill-27" fill="#24478C" sketch:type="MSShapeGroup"></path>
            <path d="M102.547,51.394 C102.547,52.45 101.691,53.307 100.634,53.307 C99.578,53.307 98.721,52.45 98.721,51.394 C98.721,50.337 99.578,49.481 100.634,49.481 C101.691,49.481 102.547,50.337 102.547,51.394" id="Fill-28" fill="#24478C" sketch:type="MSShapeGroup"></path>
            <path d="M119.632,16.172 C119.632,18.882 117.434,21.08 114.722,21.08 C112.012,21.08 109.814,18.882 109.814,16.172 C109.814,13.461 112.012,11.263 114.722,11.263 C117.434,11.263 119.632,13.461 119.632,16.172" id="Fill-29" fill="#24478C" sketch:type="MSShapeGroup"></path>
            <path d="M105.543,23.216 C105.543,25.927 103.345,28.124 100.634,28.124 C97.923,28.124 95.725,25.927 95.725,23.216 C95.725,20.506 97.923,18.307 100.634,18.307 C103.345,18.307 105.543,20.506 105.543,23.216" id="Fill-30" fill="#24478C" sketch:type="MSShapeGroup"></path>
            <path d="M116.636,44.349 C116.636,45.406 115.78,46.262 114.722,46.262 C113.666,46.262 112.81,45.406 112.81,44.349 C112.81,43.293 113.666,42.436 114.722,42.436 C115.78,42.436 116.636,43.293 116.636,44.349" id="Fill-31" fill="#24478C" sketch:type="MSShapeGroup"></path>
            <path d="M117.995,30.26 C117.995,32.068 116.531,33.533 114.723,33.533 C112.916,33.533 111.45,32.068 111.45,30.26 C111.45,28.453 112.916,26.988 114.723,26.988 C116.531,26.988 117.995,28.453 117.995,30.26" id="Fill-32" fill="#24478C" sketch:type="MSShapeGroup"></path>
            <path d="M74.368,9.127 C74.368,10.183 73.512,11.04 72.456,11.04 C71.398,11.04 70.542,10.183 70.542,9.127 C70.542,8.07 71.398,7.214 72.456,7.214 C73.512,7.214 74.368,8.07 74.368,9.127" id="Fill-33" fill="#24478C" sketch:type="MSShapeGroup"></path>
            <path d="M116.636,2.083 C116.636,3.139 115.78,3.995 114.723,3.995 C113.666,3.995 112.81,3.139 112.81,2.083 C112.81,1.026 113.666,0.169 114.723,0.169 C115.78,0.169 116.636,1.026 116.636,2.083" id="Fill-34" fill="#24478C" sketch:type="MSShapeGroup"></path>
            <path d="M130.725,9.127 C130.725,10.183 129.869,11.04 128.812,11.04 C127.756,11.04 126.898,10.183 126.898,9.127 C126.898,8.07 127.756,7.214 128.812,7.214 C129.869,7.214 130.725,8.07 130.725,9.127" id="Fill-35" fill="#24478C" sketch:type="MSShapeGroup"></path>
            <path d="M170.159,20.141 C170.584,19.117 170.665,18.28 170.397,17.655 C170.193,17.177 169.787,16.817 169.189,16.585 C167.732,16.052 166.575,16.746 165.802,18.624 L160.36,31.824 L152.854,18.345 C152.411,17.51 151.877,16.945 151.267,16.667 C150.646,16.384 149.96,16.426 149.23,16.805 C148.553,17.185 148.182,17.769 148.128,18.541 C148.075,19.291 148.274,20.041 148.716,20.769 L157.938,36.797 C157.53,37.852 157.094,38.647 156.643,39.161 C156.193,39.673 155.674,39.921 155.054,39.921 C154.775,39.921 154.512,39.895 154.272,39.845 C154.031,39.795 153.745,39.704 153.424,39.575 C153.082,39.438 152.845,39.357 152.719,39.333 C151.332,38.879 150.386,39.27 149.93,40.464 C149.423,41.819 149.916,42.916 151.396,43.726 C152.371,44.267 153.682,44.542 155.293,44.542 C157.084,44.542 158.578,43.86 159.731,42.516 C160.865,41.196 162.071,39.047 163.317,36.131 L170.159,20.141" id="Fill-36" fill="#24478C" sketch:type="MSShapeGroup"></path>
            <path d="M177.645,44.144 C178.43,44.144 179.059,43.9 179.512,43.417 C179.964,42.937 180.194,42.311 180.194,41.555 L180.194,32.252 L192.516,32.252 L192.516,41.555 C192.516,42.31 192.738,42.936 193.175,43.415 C193.616,43.899 194.252,44.144 195.065,44.144 C195.851,44.144 196.479,43.9 196.933,43.416 C197.384,42.937 197.614,42.311 197.614,41.555 L197.614,19.005 C197.614,18.251 197.385,17.618 196.935,17.125 C196.48,16.628 195.851,16.376 195.065,16.376 C194.251,16.376 193.615,16.629 193.173,17.127 C192.737,17.619 192.516,18.251 192.516,19.005 L192.516,27.672 L180.194,27.672 L180.194,19.005 C180.194,18.25 179.965,17.618 179.514,17.125 C179.06,16.628 178.431,16.376 177.645,16.376 C176.831,16.376 176.195,16.629 175.753,17.127 C175.317,17.62 175.096,18.252 175.096,19.005 L175.096,41.555 C175.096,42.309 175.317,42.935 175.755,43.415 C176.196,43.899 176.832,44.144 177.645,44.144" id="Fill-37" fill="#24478C" sketch:type="MSShapeGroup"></path>
            <path d="M207.275,44.144 C208.094,44.144 208.886,43.655 209.633,42.685 L222.265,25.428 L222.265,41.555 C222.265,42.283 222.486,42.902 222.922,43.393 C223.363,43.891 224.013,44.144 224.854,44.144 C225.667,44.144 226.297,43.898 226.726,43.413 C227.148,42.933 227.362,42.309 227.362,41.555 L227.362,19.005 C227.362,17.26 226.545,16.376 224.933,16.376 C224.008,16.376 223.188,16.853 222.495,17.795 L209.943,35.167 L209.943,19.005 C209.943,18.252 209.722,17.62 209.286,17.127 C208.844,16.629 208.207,16.376 207.394,16.376 C206.553,16.376 205.909,16.629 205.481,17.129 C205.059,17.621 204.845,18.252 204.845,19.005 L204.845,41.555 C204.845,42.363 205.061,43.003 205.485,43.456 C205.913,43.912 206.515,44.144 207.275,44.144" id="Fill-38" fill="#24478C" sketch:type="MSShapeGroup"></path>
            <path d="M248.288,39.113 C247.326,39.755 245.864,40.08 243.944,40.08 C242.221,40.08 240.725,40.006 239.493,39.86 L239.493,31.894 L243.904,31.894 C247.809,31.894 249.708,33.22 249.708,35.947 C249.708,37.42 249.23,38.486 248.288,39.113 L248.288,39.113 Z M243.387,27.99 L239.493,27.99 L239.493,20.663 C240.701,20.541 241.876,20.48 242.989,20.48 C246.626,20.48 248.395,21.636 248.395,24.016 C248.395,26.69 246.756,27.99 243.387,27.99 L243.387,27.99 Z M250.257,29.277 C251.229,28.76 252.021,28.011 252.613,27.044 C253.276,25.962 253.612,24.782 253.612,23.539 C253.612,18.654 250.185,16.177 243.427,16.177 C241.043,16.177 238.88,16.339 236.996,16.657 C235.402,16.937 234.594,17.887 234.594,19.482 L234.594,41.197 C234.594,42.769 235.39,43.679 236.959,43.903 C238.838,44.195 241.122,44.343 243.745,44.343 C251.163,44.343 254.924,41.451 254.924,35.749 C254.924,34.155 254.471,32.763 253.578,31.612 C252.759,30.558 251.644,29.774 250.257,29.277 L250.257,29.277 Z" id="Fill-39" fill="#24478C" sketch:type="MSShapeGroup"></path>
            <path d="M279.154,43.523 C279.597,43.109 279.821,42.554 279.821,41.873 C279.821,41.168 279.597,40.599 279.154,40.184 C278.712,39.772 278.12,39.563 277.392,39.563 L266.06,39.563 L266.06,32.172 L274.767,32.172 C275.523,32.172 276.13,31.956 276.57,31.531 C277.012,31.103 277.236,30.542 277.236,29.862 C277.236,29.154 277.01,28.592 276.566,28.19 C276.126,27.793 275.521,27.592 274.767,27.592 L266.06,27.592 L266.06,20.957 L276.994,20.957 C277.723,20.957 278.316,20.748 278.756,20.336 C279.199,19.922 279.423,19.367 279.423,18.687 C279.423,17.979 279.199,17.411 278.756,16.997 C278.316,16.585 277.723,16.376 276.994,16.376 L263.551,16.376 C262.739,16.376 262.096,16.628 261.642,17.125 C261.191,17.618 260.962,18.25 260.962,19.005 L260.962,41.515 C260.962,42.271 261.198,42.904 261.663,43.396 C262.13,43.893 262.779,44.144 263.591,44.144 L277.392,44.144 C278.12,44.144 278.713,43.935 279.154,43.523" id="Fill-40" fill="#24478C" sketch:type="MSShapeGroup"></path>
            <path d="M289.962,20.897 C291.068,20.752 292.177,20.679 293.26,20.679 C296.925,20.679 298.706,22.173 298.706,25.249 C298.706,28.538 296.833,30.137 292.981,30.137 C291.722,30.137 290.708,30.09 289.962,29.998 L289.962,20.897 L289.962,20.897 Z M304.042,25.13 C304.042,22.067 303.077,19.782 301.174,18.338 C299.284,16.904 296.662,16.177 293.379,16.177 C291.045,16.177 288.974,16.352 287.223,16.697 C285.658,17.005 284.865,17.995 284.865,19.641 L284.865,41.555 C284.865,42.309 285.086,42.935 285.523,43.415 C285.965,43.899 286.601,44.144 287.414,44.144 C288.199,44.144 288.827,43.9 289.281,43.417 C289.733,42.937 289.962,42.311 289.962,41.555 L289.962,34.427 C290.755,34.541 291.863,34.599 293.26,34.599 C296.438,34.599 299.055,33.797 301.038,32.217 C303.031,30.627 304.042,28.242 304.042,25.13 L304.042,25.13 Z" id="Fill-41" fill="#24478C" sketch:type="MSShapeGroup"></path>
            <path d="M326.468,38.273 C324.566,39.393 322.693,39.961 320.902,39.961 C318.656,39.961 316.777,39.091 315.319,37.374 C313.854,35.649 313.11,33.242 313.11,30.22 C313.11,27.302 313.802,24.933 315.165,23.181 C317.377,20.335 321.023,19.778 325.937,21.662 C327.59,22.279 328.678,22.024 329.163,20.943 C329.73,19.725 329.39,18.68 328.154,17.837 C326.385,16.604 323.878,15.979 320.703,15.979 C316.669,15.979 313.471,17.288 311.195,19.872 C308.925,22.449 307.774,25.944 307.774,30.26 C307.774,34.628 308.857,38.135 310.994,40.685 C313.138,43.244 316.352,44.542 320.545,44.542 C323.852,44.542 326.614,43.741 328.756,42.162 C329.447,41.637 329.876,41.03 330.029,40.359 C330.186,39.676 330.076,39.082 329.706,38.599 C328.999,37.58 327.9,37.458 326.468,38.273" id="Fill-42" fill="#24478C" sketch:type="MSShapeGroup"></path>
            <path d="M355.663,16.376 C354.738,16.376 353.917,16.853 353.225,17.795 L340.673,35.167 L340.673,19.005 C340.673,18.252 340.452,17.62 340.016,17.127 C339.574,16.629 338.937,16.376 338.124,16.376 C337.283,16.376 336.639,16.629 336.211,17.129 C335.789,17.621 335.575,18.252 335.575,19.005 L335.575,41.555 C335.575,42.363 335.791,43.003 336.215,43.456 C336.643,43.912 337.245,44.144 338.005,44.144 C338.823,44.144 339.616,43.655 340.363,42.685 L352.995,25.428 L352.995,41.555 C352.995,42.283 353.216,42.902 353.652,43.393 C354.093,43.891 354.743,44.144 355.584,44.144 C356.397,44.144 357.027,43.898 357.456,43.413 C357.878,42.933 358.092,42.309 358.092,41.555 L358.092,19.005 C358.092,17.26 357.275,16.376 355.663,16.376" id="Fill-43" fill="#24478C" sketch:type="MSShapeGroup"></path>
            <path d="M386.291,18.647 C386.291,17.939 386.065,17.376 385.62,16.975 C385.18,16.577 384.575,16.376 383.821,16.376 L364.969,16.376 C364.243,16.376 363.65,16.577 363.209,16.975 C362.765,17.376 362.54,17.939 362.54,18.647 C362.54,19.325 362.764,19.886 363.205,20.315 C363.646,20.741 364.24,20.957 364.969,20.957 L371.846,20.957 L371.846,41.555 C371.846,42.309 372.068,42.935 372.505,43.415 C372.946,43.899 373.582,44.144 374.395,44.144 C375.208,44.144 375.844,43.899 376.285,43.415 C376.722,42.935 376.944,42.31 376.944,41.555 L376.944,20.957 L383.821,20.957 C384.577,20.957 385.184,20.741 385.625,20.315 C386.066,19.886 386.291,19.325 386.291,18.647" id="Fill-44" fill="#24478C" sketch:type="MSShapeGroup"></path>
            <path d="M407.167,39.563 L395.835,39.563 L395.835,32.172 L404.542,32.172 C405.299,32.172 405.906,31.956 406.345,31.531 C406.787,31.103 407.011,30.542 407.011,29.862 C407.011,29.154 406.786,28.592 406.342,28.19 C405.901,27.793 405.296,27.592 404.542,27.592 L395.835,27.592 L395.835,20.957 L406.769,20.957 C407.499,20.957 408.092,20.748 408.531,20.336 C408.974,19.922 409.199,19.367 409.199,18.687 C409.199,17.979 408.974,17.411 408.531,16.997 C408.091,16.585 407.498,16.376 406.769,16.376 L393.326,16.376 C392.514,16.376 391.871,16.628 391.417,17.125 C390.966,17.618 390.738,18.25 390.738,19.005 L390.738,41.515 C390.738,42.271 390.973,42.904 391.438,43.396 C391.905,43.893 392.554,44.144 393.366,44.144 L407.167,44.144 C407.896,44.144 408.488,43.935 408.929,43.523 C409.372,43.109 409.597,42.554 409.597,41.873 C409.597,41.168 409.372,40.599 408.929,40.184 C408.488,39.772 407.896,39.563 407.167,39.563" id="Fill-45" fill="#24478C" sketch:type="MSShapeGroup"></path>
            <path d="M435.21,18.647 C435.21,17.939 434.985,17.376 434.54,16.975 C434.099,16.577 433.494,16.376 432.741,16.376 L413.889,16.376 C413.162,16.376 412.57,16.577 412.129,16.975 C411.684,17.376 411.459,17.939 411.459,18.647 C411.459,19.325 411.683,19.886 412.125,20.315 C412.565,20.741 413.159,20.957 413.889,20.957 L420.766,20.957 L420.766,41.555 C420.766,42.309 420.988,42.935 421.425,43.415 C421.865,43.899 422.501,44.144 423.314,44.144 C424.128,44.144 424.764,43.899 425.204,43.415 C425.642,42.935 425.864,42.31 425.864,41.555 L425.864,20.957 L432.741,20.957 C433.497,20.957 434.104,20.741 434.544,20.315 C434.986,19.886 435.21,19.325 435.21,18.647" id="Fill-46" fill="#24478C" sketch:type="MSShapeGroup"></path>
            <path d="M473.311,41.555 L473.311,19.005 C473.311,17.26 472.493,16.376 470.881,16.376 C469.956,16.376 469.136,16.853 468.443,17.795 L455.891,35.167 L455.891,19.005 C455.891,18.252 455.67,17.62 455.234,17.127 C454.792,16.629 454.155,16.376 453.342,16.376 C452.501,16.376 451.857,16.629 451.429,17.129 C451.007,17.622 450.793,18.253 450.793,19.005 L450.793,41.555 C450.793,42.363 451.009,43.002 451.433,43.456 C451.861,43.912 452.464,44.144 453.223,44.144 C454.042,44.144 454.834,43.655 455.581,42.685 L468.213,25.428 L468.213,41.555 C468.213,42.283 468.434,42.902 468.87,43.393 C469.311,43.891 469.961,44.144 470.802,44.144 C471.616,44.144 472.245,43.898 472.674,43.413 C473.097,42.933 473.311,42.309 473.311,41.555" id="Fill-47" fill="#24478C" sketch:type="MSShapeGroup"></path>
            <path d="M499.04,16.376 L480.188,16.376 C479.461,16.376 478.869,16.577 478.428,16.975 C477.984,17.376 477.758,17.939 477.758,18.647 C477.758,19.325 477.982,19.886 478.424,20.315 C478.865,20.741 479.458,20.957 480.188,20.957 L487.065,20.957 L487.065,41.555 C487.065,42.309 487.287,42.935 487.724,43.415 C488.165,43.899 488.801,44.144 489.614,44.144 C490.427,44.144 491.063,43.899 491.504,43.415 C491.941,42.935 492.163,42.31 492.163,41.555 L492.163,20.957 L499.04,20.957 C499.796,20.957 500.403,20.741 500.844,20.315 C501.285,19.886 501.51,19.325 501.51,18.647 C501.51,17.939 501.284,17.376 500.839,16.975 C500.399,16.577 499.794,16.376 499.04,16.376" id="Fill-48" fill="#24478C" sketch:type="MSShapeGroup"></path>
            <path d="M528.908,16.376 C527.925,16.376 527.09,16.91 526.424,17.964 L518.607,30.59 L510.633,18.005 C509.968,16.924 509.091,16.376 508.029,16.376 C507.324,16.376 506.744,16.6 506.302,17.04 C505.862,17.481 505.639,18.156 505.639,19.045 L505.639,41.555 C505.639,43.273 506.443,44.144 508.029,44.144 C509.614,44.144 510.418,43.273 510.418,41.555 L510.418,26.124 L516.004,34.88 C516.617,35.855 517.412,36.348 518.369,36.348 C519.301,36.348 520.083,35.841 520.695,34.84 L526.2,25.94 L526.2,41.555 C526.2,42.31 526.43,42.937 526.882,43.416 C527.335,43.9 527.964,44.144 528.75,44.144 C529.563,44.144 530.199,43.899 530.639,43.415 C531.077,42.936 531.298,42.31 531.298,41.555 L531.298,19.005 C531.298,18.226 531.091,17.589 530.683,17.109 C530.268,16.623 529.671,16.376 528.908,16.376" id="Fill-49" fill="#24478C" sketch:type="MSShapeGroup"></path>
            <path d="M556.401,37.262 C555.047,39.052 553.077,39.961 550.544,39.961 C548.038,39.961 546.081,39.052 544.728,37.262 C543.365,35.456 542.673,33.1 542.673,30.26 C542.673,27.42 543.365,25.065 544.728,23.258 C546.081,21.468 548.038,20.559 550.544,20.559 C553.077,20.559 555.047,21.468 556.401,23.258 C557.764,25.064 558.456,27.42 558.456,30.26 C558.456,33.101 557.764,35.457 556.401,37.262 L556.401,37.262 Z M560.332,20.012 C558.03,17.336 554.738,15.979 550.544,15.979 C546.351,15.979 543.064,17.336 540.776,20.013 C538.494,22.681 537.337,26.129 537.337,30.26 C537.337,34.417 538.494,37.872 540.777,40.528 C543.066,43.191 546.352,44.542 550.544,44.542 C554.736,44.542 558.03,43.191 560.332,40.528 C562.628,37.872 563.792,34.417 563.792,30.26 C563.792,26.129 562.628,22.681 560.332,20.012 L560.332,20.012 Z" id="Fill-50" fill="#24478C" sketch:type="MSShapeGroup"></path>
        </g>
    </g>
</svg>